#!OML:ASF E:\acrobat2\Project_11_07_03\Capture day 1\Session 1\Acrobat.ASF
:FULLY-SPECIFIED
:DEGREES
551
root 8.54253 13.0332 6.69701 7.85682 -26.5759 5.08021
lowerback 17.8026 -2.38962 6.16335
upperback -1.57689 -1.62772 1.85213
thorax -11.935 -1.09014 -0.993589
lowerneck -7.27656 6.42203 3.48083
upperneck -12.6246 7.61332 -8.98566
head -2.29998 3.79482 -3.50667
rclavicle 5.76476e-014 -2.8625e-014
rhumerus -30.1024 25.846 -54.308
rradius 136.962
rwrist -45.2888
rhand 12.0245 -33.6207
rfingers 7.12502
rthumb 37.0439 300.326
lclavicle 5.76476e-014 -2.8625e-014
lhumerus -28.1773 -18.0853 56.5766
lradius 123.009
lwrist 60.8132
lhand -25.9013 -28.5098
lfingers 7.12502
lthumb 0.641078 1.46896
rfemur -69.8753 -26.8077 7.90365
rtibia 88.1419
rfoot -140.646 -68.26
rtoes 1.67495
lfemur -38.658 37.101 -4.04238
ltibia 78.3641
lfoot -171.582 26.4592
ltoes 51.0642
552
root 8.46001 13.069 6.81064 7.63896 -26.1753 4.99767
lowerback 17.2491 -2.47475 6.39035
upperback -1.72214 -1.71791 1.97961
thorax -11.7903 -1.14256 -0.968497
lowerneck -7.37131 6.4096 3.85127
upperneck -12.301 7.58591 -9.12721
head -2.1565 3.76233 -3.60578
rclavicle 1.86858e-014 2.8625e-014
rhumerus -30.8908 36.2442 -57.6586
rradius 140.427
rwrist -43.222
rhand 10.1634 -33.968
rfingers 7.12502
rthumb 35.2813 299.542
lclavicle 1.86858e-014 2.8625e-014
lhumerus -27.9007 -14.4019 55.5076
lradius 120.75
lwrist 64.3696
lhand -27.1286 -27.601
lfingers 7.12502
lthumb -0.544295 2.37801
rfemur -68.4899 -26.7787 7.617
rtibia 88.6542
rfoot -127.699 -69.3762
rtoes 0.19139
lfemur -36.9488 36.685 -3.03061
ltibia 79.3442
lfoot -171.156 26.4243
ltoes 51.7526
553
root 8.38026 13.1101 6.92295 7.41965 -25.7988 4.88924
lowerback 16.7747 -2.50303 6.55819
upperback -1.86239 -1.73865 2.13035
thorax -11.6772 -1.15834 -0.902199
lowerneck -7.61953 6.3795 4.20445
upperneck -11.8838 7.5369 -9.2577
head -1.95823 3.71571 -3.68983
rclavicle -5.00937e-014 1.74931e-014
rhumerus -32.2812 45.7323 -60.8251
rradius 143.223
rwrist -42.1005
rhand 7.42793 -34.8225
rfingers 7.12502
rthumb 32.6829 298.111
lclavicle -5.00937e-014 1.74931e-014
lhumerus -27.6634 -11.1356 54.7392
lradius 118.592
lwrist 67.4325
lhand -28.4324 -26.8132
lfingers 7.12502
lthumb -1.80353 3.15889
rfemur -67.1821 -26.7443 7.37449
rtibia 89.1778
rfoot -114.197 -69.5636
rtoes -1.88306
lfemur -35.2618 36.2226 -2.06655
ltibia 80.4983
lfoot -181.444 22.9672
ltoes 52.1895
554
root 8.30326 13.157 7.03387 7.19771 -25.4286 4.76572
lowerback 16.3504 -2.46611 6.65209
upperback -1.98959 -1.68357 2.30347
thorax -11.5688 -1.13286 -0.7894
lowerneck -7.95435 6.31555 4.48281
upperneck -11.4485 7.44712 -9.32856
head -1.74816 3.64896 -3.73858
rclavicle 1.98785e-015 3.18055e-014
rhumerus -33.6363 52.8899 -63.1238
rradius 145.232
rwrist -41.6892
rhand 5.25914 -35.205
rfingers 7.12502
rthumb 30.6171 297.321
lclavicle 1.98785e-015 3.18055e-014
lhumerus -27.408 -8.38754 54.2866
lradius 116.627
lwrist 69.8368
lhand -29.8387 -26.1644
lfingers 7.12502
lthumb -3.16173 3.79188
rfemur -65.9015 -26.711 7.13861
rtibia 89.7074
rfoot -101.015 -68.6842
rtoes -4.00966
lfemur -33.63 35.7013 -1.1731
ltibia 81.8803
lfoot -191.495 19.0542
ltoes 52.4066
555
root 8.22917 13.2101 7.14435 6.95766 -25.0096 4.64132
lowerback 15.9466 -2.38199 6.69317
upperback -2.09011 -1.57598 2.48707
thorax -11.4358 -1.07801 -0.649564
lowerneck -8.32407 6.21265 4.65321
upperneck -11.0582 7.31014 -9.32486
head -1.55873 3.56167 -3.7455
rclavicle -1.34776e-013 5.725e-014
rhumerus -33.859 56.7598 -63.5677
rradius 146.514
rwrist -42.0621
rhand 3.80107 -35.2256
rfingers 7.12502
rthumb 29.2258 297.05
lclavicle -1.34776e-013 5.725e-014
lhumerus -27.1 -6.2539 54.1389
lradius 114.983
lwrist 71.5492
lhand -31.1621 -25.6405
lfingers 7.12502
lthumb -4.43968 4.29302
rfemur -64.5574 -26.7331 6.85792
rtibia 90.2207
rfoot -89.1922 -66.6776
rtoes -5.7943
lfemur -32.071 35.0678 -0.371577
ltibia 83.3744
lfoot -201.252 14.5919
ltoes 52.4307
556
root 8.1574 13.269 7.25399 6.74737 -24.5863 4.48419
lowerback 15.5264 -2.23976 6.70348
upperback -2.16847 -1.40023 2.67643
thorax -11.2625 -0.987807 -0.504702
lowerneck -8.68651 6.06987 4.71858
upperneck -10.7654 7.12225 -9.26644
head -1.41364 3.45345 -3.7212
rclavicle 2.42517e-014 2.38542e-014
rhumerus -32.3493 57.0277 -61.6687
rradius 147.148
rwrist -43.0187
rhand 3.30154 -34.9769
rfingers 7.12502
rthumb 28.7487 297.216
lclavicle 2.42517e-014 2.38542e-014
lhumerus -26.7439 -4.82605 54.2504
lradius 113.815
lwrist 72.6948
lhand -32.3124 -25.2384
lfingers 7.12502
lthumb -5.55034 4.66891
rfemur -63.174 -26.7476 6.57424
rtibia 90.6852
rfoot -79.4141 -63.6047
rtoes -6.99595
lfemur -30.617 34.3958 0.362869
ltibia 84.852
lfoot -210.683 9.62652
ltoes 52.3572
557
root 8.08792 13.3349 7.36512 6.54567 -24.0356 4.27406
lowerback 15.1141 -2.10216 6.77069
upperback -2.2351 -1.22064 2.8631
thorax -11.0831 -0.898973 -0.394491
lowerneck -8.98194 5.87607 4.68033
upperneck -10.6258 6.86718 -9.16982
head -1.34125 3.31806 -3.67539
rclavicle 1.27222e-014 -4.92986e-014
rhumerus -29.8903 54.185 -58.3493
rradius 147.049
rwrist -43.6915
rhand 3.55433 -34.4729
rfingers 7.12502
rthumb 28.9901 297.762
lclavicle 1.27222e-014 -4.92986e-014
lhumerus -26.3816 -4.2088 54.5663
lradius 113.26
lwrist 73.441
lhand -33.1562 -25.02
lfingers 7.12502
lthumb -6.36498 4.86439
rfemur -61.6135 -26.8723 6.27556
rtibia 91.048
rfoot -71.7564 -59.6702
rtoes -7.56619
lfemur -29.2847 33.5785 1.05123
ltibia 86.2046
lfoot -219.869 4.27422
ltoes 52.2285
